# xmcd
#
# Track frame offsets: 
#        150
#        29514
#        57919
#        74732
#        95001
#        101992
#        123606
#        148283
#        174533
#        197468
#        213153
#        235497
#        257774
#        269552
#        293512
#
# Disc length: 4297 seconds
#
# Revision: 1
# Processed by: cddbd v1.5.2PL0 Copyright (c) Steve Scherf et al.
# Submitted via: ExactAudioCopy v0.95a5
#
DISCID=f510c70f
DTITLE=John Scofield - That's What I Say -plays the music of RAY CHARL
DTITLE=ES-
DYEAR=2005
DGENRE=Jazz
TTITLE0=Busted
TTITLE1=What'd I Say
TTITLE2=Sticks And Stones
TTITLE3=I Don't Need No Doctor
TTITLE4=Cryin' Time
TTITLE5=I Can't Stop Loving You
TTITLE6=Hit The Road Jack
TTITLE7=Talkin' Bout You/I Got A Woman
TTITLE8=Unchain My Heart (Part 1)
TTITLE9=Let's Go Get Stoned
TTITLE10=Night Time Is The Right Time
TTITLE11=You Don't Know Me
TTITLE12=Georgia On My Mind
TTITLE13=Unchain My Heart (Part 2)
TTITLE14=Drown In My Own Tears
EXTD=YEAR: 2005
EXTT0=
EXTT1=
EXTT2=
EXTT3=
EXTT4=
EXTT5=
EXTT6=
EXTT7=
EXTT8=
EXTT9=
EXTT10=
EXTT11=
EXTT12=
EXTT13=
EXTT14=
PLAYORDER=
